PathFileType	4	(X/Y/Z)	G:\TennisProject\Miami_Dimitrov_Sinner_masked_Sports2D\Miami_Dimitrov_Sinner_masked_Sports2D_m_person00.trc
DataRate	CameraRate	NumFrames	NumMarkers	Units	OrigDataRate	OrigDataStartFrame	OrigNumFrames
25	25	10	22	m	25	124	499
Frame#	Time	Hip			RHip			RKnee			RAnkle			RBigToe			RSmallToe			RHeel			LHip			LKnee			LAnkle			LBigToe			LSmallToe			LHeel			Neck			Head			Nose			RShoulder			RElbow			RWrist			LShoulder			LElbow			LWrist		
		X1	Y1	Z1	X2	Y2	Z2	X3	Y3	Z3	X4	Y4	Z4	X5	Y5	Z5	X6	Y6	Z6	X7	Y7	Z7	X8	Y8	Z8	X9	Y9	Z9	X10	Y10	Z10	X11	Y11	Z11	X12	Y12	Z12	X13	Y13	Z13	X14	Y14	Z14	X15	Y15	Z15	X16	Y16	Z16	X17	Y17	Z17	X18	Y18	Z18	X19	Y19	Z19	X20	Y20	Z20	X21	Y21	Z21	X22	Y22	Z22
124	4.96	17.81254611840016	0.7217861972768613	0.0	17.69490153362239	0.7176015564187491	0.0	17.475251926321516	0.4031902705435023	0.0	17.439046141613353	-0.0001361274181846341	0.0	17.324563162316117	-0.07418906424240815	0.0	17.306055163417334	-0.0487045122936184	0.0	17.472870773116263	-0.057458885746363854	0.0	17.939048040022094	0.7116391369108723	0.0	18.077458453206322	0.34278066512948757	0.0	18.3915640501494	-0.017979294181966452	0.0	18.406218920273083	-0.14451127571933275	0.0	18.46217306850082	-0.11382234797490486	0.0	18.42663939398479	-0.05631722111893385	0.0	17.7091895445799	1.1363270360338802	0.0	17.68138337519635	1.3869256641772347	0.0	17.687377187315658	1.2494486891374599	0.0	17.549003871061366	1.0767259250516876	0.0	17.47486121932093	0.8442965814902281	0.0	17.56284909558953	0.6470178083322743	0.0	17.896674318629053	1.0953048971135286	0.0	18.00968174681427	0.8092396399526953	0.0	17.820233432214266	0.6278994394020843	0.0
125	5.0	17.844174730522973	0.6801748136670651	0.0	17.723717651998633	0.6799175597339613	0.0	17.472599466492838	0.398368725020215	0.0	17.440799191296986	-0.005619379486887109	0.0	17.298802652632805	-0.07135441412397696	0.0	17.292878362775337	-0.04580258511565947	0.0	17.481187062622038	-0.06085250933562983	0.0	17.969759260689468	0.6741704298377653	0.0	18.092690950568112	0.30253503455080866	0.0	18.421295305269233	-0.04245718014326983	0.0	18.427963757390362	-0.15985904475514906	0.0	18.48714662901894	-0.12927972959819484	0.0	18.46333395171265	-0.08271147109994485	0.0	17.717623959785104	1.0729283206766231	0.0	17.689535434856484	1.3208069406043983	0.0	17.69243768583235	1.1846213484103678	0.0	17.56331665389275	1.0161237436864357	0.0	17.513470091506036	0.7938605035472098	0.0	17.565937767512036	0.6157832570773181	0.0	17.90274470621439	1.0256703744838376	0.0	18.01176716175288	0.7371417929484994	0.0	17.80183446853343	0.5817454566322839	0.0
126	5.04	17.85450934384289	0.656899600228485	0.0	17.73252023429443	0.6536925775587729	0.0	17.448498008194335	0.4108475945604927	0.0	17.45346126701025	-0.0054239943117714365	0.0	17.30454354323671	-0.06624108271260207	0.0	17.302690027970026	-0.04175260625079223	0.0	17.498750965001893	-0.056558830881917765	0.0	17.977508594523158	0.6497939510740735	0.0	18.090477802281075	0.2734394476643442	0.0	18.42524712063338	-0.049675891491022285	0.0	18.43077599246114	-0.16145339252305388	0.0	18.490314120688687	-0.13130469518221483	0.0	18.471086902299795	-0.08952347756502496	0.0	17.699595809236804	1.0385038419184482	0.0	17.66612629444137	1.2940833123645192	0.0	17.666286268045795	1.1582466234429991	0.0	17.551335095180683	0.9869314198614527	0.0	17.528571321520552	0.7658740524305553	0.0	17.543188496869146	0.605659419859682	0.0	17.87621913862192	0.9886346219502092	0.0	17.971737876815254	0.7004383282455262	0.0	17.75569840257546	0.5552227694421294	0.0
127	5.08	17.835542486858717	0.6486807259375292	0.0	17.71081684087952	0.6439313684889412	0.0	17.403061367821643	0.422249535068671	0.0	17.496012239564596	0.002810379264083863	0.0	17.35268098751052	-0.06762000348777424	0.0	17.351195493824772	-0.04043504307962139	0.0	17.546742680718026	-0.044573165530504166	0.0	17.954421334755764	0.6388110858909538	0.0	18.082369612335977	0.25832918967038165	0.0	18.430295630062222	-0.053468953697300786	0.0	18.431088877483543	-0.16227399892508096	0.0	18.487519750477368	-0.129852879076117	0.0	18.47411232798651	-0.08659806859322683	0.0	17.65128316720139	1.0378430741574916	0.0	17.610795505637938	1.2846621479204592	0.0	17.610811306426214	1.1605112407953613	0.0	17.510309577660706	0.9950965082533324	0.0	17.50720727875774	0.773930573788331	0.0	17.459068601012106	0.6259321453796394	0.0	17.816378175876444	0.985894593404324	0.0	17.89618406620848	0.6981573263940286	0.0	17.68426733888294	0.578651806096393	0.0
128	5.12	17.78417200873469	0.652232226138004	0.0	17.65603531003714	0.6469190432074119	0.0	17.34263045323327	0.4131463632020221	0.0	17.557547932500423	0.027286485586283223	0.0	17.429852597233328	-0.07225301425214038	0.0	17.429869734374062	-0.04074490771469509	0.0	17.615290505037628	-0.014742270940387695	0.0	17.89992914092926	0.64179240543924	0.0	18.059686400041336	0.26058994138847946	0.0	18.440577669797083	-0.05053266360146442	0.0	18.435016182563913	-0.16248625337171943	0.0	18.492301602611168	-0.1314126173983588	0.0	18.485304343381873	-0.07463403885357277	0.0	17.577045416116434	1.0661790772410458	0.0	17.530428103639643	1.2962131002223833	0.0	17.527961561372873	1.1824046265622645	0.0	17.445402809230476	1.0261872151594988	0.0	17.452748389671502	0.8071922796998452	0.0	17.33440361179985	0.6675571734140171	0.0	17.733498367080784	1.0046285835280473	0.0	17.799955293272117	0.7126261701749267	0.0	17.57557911364345	0.6400378054444003	0.0
129	5.16	17.70731453797617	0.6658639638975548	0.0	17.58262246381299	0.6522942561441757	0.0	17.29739808067738	0.3792339378083821	0.0	17.619080160578495	0.055433976029435096	0.0	17.526185098257585	-0.07814445648469874	0.0	17.522553260296103	-0.04316447795238229	0.0	17.68444235492164	0.019918905943984027	0.0	17.8187814370286	0.6554180465918259	0.0	18.001397247244675	0.2766253213904672	0.0	18.429072379763497	-0.027740302572914804	0.0	18.43022305776864	-0.15124868589550322	0.0	18.489264921965997	-0.12728011265901026	0.0	18.480874098254805	-0.04349543340890431	0.0	17.48487358433003	1.112183086420569	0.0	17.4336354455525	1.330662645382199	0.0	17.422618949996487	1.22057408412386	0.0	17.364597734446303	1.0644328997942512	0.0	17.38087374998003	0.8444167082715259	0.0	17.226900919951714	0.7123058112866993	0.0	17.635899160055526	1.0367533770855233	0.0	17.692694152817847	0.7373005823159728	0.0	17.444850243451203	0.6989779166516646	0.0
130	5.2	17.62241338604682	0.6848335474571886	0.0	17.514286530145476	0.6559248654366641	0.0	17.30422854710742	0.3300972255782845	0.0	17.687373221393518	0.05970278737239551	0.0	17.62706360263726	-0.0872665043910367	0.0	17.617592213209576	-0.05429871229851805	0.0	17.75909236809908	0.025335319547349883	0.0	17.72070160641916	0.6723369982771852	0.0	17.882027202161	0.28776477435093517	0.0	18.350745579239053	0.021760804296638	0.0	18.376959507349103	-0.11985074436296886	0.0	18.420828815993875	-0.09818045237093861	0.0	18.406627554503988	0.01422635343668927	0.0	17.38162966134856	1.1562370114755927	0.0	17.325307943560894	1.367406899559684	0.0	17.306425106574846	1.261696397572799	0.0	17.274585484091084	1.101103552792934	0.0	17.299447615986452	0.8774864027799673	0.0	17.150876962688056	0.748199428324105	0.0	17.529207028157145	1.0734517103651446	0.0	17.582099085144492	0.768424326056087	0.0	17.320877452420778	0.7301177948888101	0.0
131	5.24	17.544869043004315	0.701386701832814	0.0	17.464031826287535	0.6658860670612587	0.0	17.354097331852284	0.2879760595410473	0.0	17.76199455977497	0.0367352602266725	0.0	17.70323912545242	-0.09488137023485703	0.0	17.695107220156917	-0.07580629397091532	0.0	17.83889813950011	0.00141620612013618	0.0	17.617144747919152	0.6877443413123272	0.0	17.692667351174162	0.27830583409021836	0.0	18.18217490283255	0.08203268663604828	0.0	18.238128804549067	-0.07687059276026312	0.0	18.257408769087043	-0.04444330501233963	0.0	18.23958513010261	0.08177362794361454	0.0	17.27389633755084	1.179176213621256	0.0	17.210520161425087	1.3971700347585818	0.0	17.195307032643743	1.2893763304623498	0.0	17.178314357272956	1.125589403555296	0.0	17.20367384512269	0.9029403627004613	0.0	17.081737553378897	0.7710702407787807	0.0	17.421191603230046	1.0991351638124989	0.0	17.475283387388448	0.7869988985020686	0.0	17.209230456081023	0.7346256595066059	0.0
132	5.28	17.46788367945348	0.7119320047607696	0.0	17.413756918055117	0.6843983391906642	0.0	17.35945585302592	0.2783212351515011	0.0	17.766087527053482	0.01554683403703902	0.0	17.694053656377996	-0.10060634374457698	0.0	17.69167081587003	-0.09592356740018153	0.0	17.880216854639123	-0.009877052569822674	0.0	17.514610292283795	0.6994246945391066	0.0	17.492388246927188	0.26114742526155227	0.0	17.981013652946803	0.11613274257607648	0.0	18.042936874349316	-0.05108484374734603	0.0	18.06034370942435	-0.004531885387856913	0.0	18.04734178198399	0.11818101507003412	0.0	17.16920913571551	1.1814965652128655	0.0	17.097769454671894	1.4306861709911989	0.0	17.09625746970333	1.302250604694944	0.0	17.075629771688583	1.1327906172457964	0.0	17.091697921088933	0.9156604012234562	0.0	17.000742375177268	0.7806645791585411	0.0	17.31635880299823	1.1092861116040347	0.0	17.37052419048787	0.7882667944597106	0.0	17.10569038526305	0.7297312235679428	0.0
133	5.32	17.371599003436614	0.7192853054231304	0.0	17.336705962350237	0.6968495164165738	0.0	17.26575872261868	0.30034654815768735	0.0	17.651395393046034	0.01943869474118315	0.0	17.574975195807674	-0.10895944825761453	0.0	17.576815441075873	-0.10078234389473957	0.0	17.85791120092686	0.00943614734270607	0.0	17.409786070326565	0.7032985555786034	0.0	17.34245719095797	0.26900965728093984	0.0	17.800635965193997	0.10146380084725382	0.0	17.813338339839056	-0.05943582666474117	0.0	17.847223722021607	-0.015982782033593348	0.0	17.874664257891357	0.09667483856365332	0.0	17.068971640741125	1.1824532097346667	0.0	16.993161498506847	1.4549226098490617	0.0	16.99895159609954	1.3072915051838923	0.0	16.969136777354922	1.1320738228721263	0.0	16.973506551918938	0.9177589798467201	0.0	16.901037679801334	0.7787705573013213	0.0	17.212371251717848	1.1157192379313592	0.0	17.261704292724133	0.7974911677475391	0.0	17.00768388061523	0.7316985888085124	0.0
